<svg xmlns="http://www.w3.org/2000/svg" viewBox="0 0 256 256" width="50" height="50"><path d="M46.08 20.48c-14.082 0-25.6 11.518-25.6 25.6v163.84c0 14.082 11.518 25.6 25.6 25.6h163.84c14.082 0 25.6-11.518 25.6-25.6V46.08c0-14.082-11.518-25.6-25.6-25.6zm0 10.24h163.84c8.558 0 15.36 6.802 15.36 15.36v163.84c0 8.558-6.802 15.36-15.36 15.36H46.08c-8.558 0-15.36-6.802-15.36-15.36V46.08c0-8.558 6.802-15.36 15.36-15.36zm87.26 20.48a5.12 5.12 0 00-5.12 5.11s-.056 24.961-.11 49.98c-.027 12.51-.06 25.032-.08 34.46-.02 9.428-.03 15.394-.03 15.89 0 9.294-8.44 16.89-18.06 16.89-9.543 0-17.16-7.627-17.16-17.17 0-9.543 7.617-17.16 17.16-17.16.323 0 .975.106 2.09.24a5.12 5.12 0 005.73-5.09v-21.51a5.12 5.12 0 00-4.8-5.11c-.798-.05-1.802-.15-3.02-.15-26.878 0-48.78 21.902-48.78 48.78s21.903 48.78 48.78 48.78c26.877 0 48.78-21.902 48.78-48.78v-46.33c7.448 5.957 16.73 9.73 26.98 9.73a43.37 43.37 0 004-.2 5.12 5.12 0 004.65-5.1V90.55a5.12 5.12 0 00-4.75-5.11c-16.1-1.155-28.935-13.697-30.61-29.65a5.12 5.12 0 00-5.09-4.59zm5.11 10.24h11.68c3.721 16.89 16.919 29.77 33.98 33v14.67c-10.951-.556-20.57-6.02-26.23-14.63a5.12 5.12 0 00-9.4 2.82v59.06c0 21.343-17.197 38.54-38.54 38.54S71.4 177.703 71.4 156.36c0-20.483 15.978-36.74 36.12-38.05v11.14c-13.893 1.293-24.98 12.693-24.98 26.91 0 15.074 12.326 27.41 27.4 27.41 14.998 0 28.3-11.807 28.3-27.13 0 .25.01-6.442.03-15.87.02-9.428.053-21.95.08-34.46.048-22.46.09-40.522.1-44.87z" fill="#f6f3f3" font-family="none" font-weight="none" font-size="none" text-anchor="none"/></svg>